<?xml version="1.0" standalone="no"?>
<!DOCTYPE svg PUBLIC "-//W3C//DTD SVG 20010904//EN"
 "http://www.w3.org/TR/2001/REC-SVG-20010904/DTD/svg10.dtd">
<svg version="1.0" xmlns="http://www.w3.org/2000/svg"
 width="512.000000pt" height="512.000000pt" viewBox="0 0 512.000000 512.000000"
 preserveAspectRatio="xMidYMid meet">
<metadata>
Created by potrace 1.16, written by Peter Selinger 2001-2019
</metadata>
<g transform="translate(0.000000,512.000000) scale(0.100000,-0.100000)"
fill="#000000" stroke="none">
<path d="M2325 4803 c-293 -35 -533 -106 -778 -230 -449 -227 -790 -574 -1013
-1028 -156 -318 -223 -615 -224 -982 0 -216 19 -377 65 -559 221 -864 910
-1505 1793 -1665 147 -27 488 -37 643 -20 1033 118 1853 921 1984 1944 19 149
19 447 1 587 -46 342 -168 670 -353 950 -360 544 -945 911 -1583 994 -111 15
-445 20 -535 9z m1353 -732 c242 -164 405 -333 488 -505 19 -38 33 -71 31 -72
-1 -1 -132 -83 -290 -182 l-288 -181 -90 104 c-126 147 -207 232 -260 275
l-47 37 145 254 c193 339 193 339 201 339 5 0 54 -31 110 -69z m-940 -777
c277 -57 498 -255 589 -529 23 -70 26 -97 27 -215 1 -161 -13 -223 -80 -358
-50 -99 -143 -211 -232 -276 -71 -52 -183 -105 -270 -127 -99 -25 -264 -27
-360 -3 -284 70 -504 291 -577 579 -25 98 -23 265 4 368 104 395 501 643 899
561z m-1098 -1416 c74 -116 205 -255 268 -287 l43 -22 -24 -42 c-14 -23 -91
-157 -171 -297 -81 -140 -150 -258 -154 -262 -4 -4 -39 8 -78 27 -141 65 -280
175 -379 298 -63 79 -141 215 -169 295 l-14 38 57 36 c68 45 544 318 551 317
3 0 34 -46 70 -101z"/>
<path d="M2545 2771 c-204 -50 -241 -326 -55 -421 140 -71 311 13 336 166 16
104 -57 219 -159 249 -54 16 -75 17 -122 6z"/>
</g>
</svg>
