<?xml version="1.0" encoding="utf-8"?>
<!-- Generator: Adobe Illustrator 25.2.3, SVG Export Plug-In . SVG Version: 6.00 Build 0)  -->
<svg version="1.1" id="Capa_1" xmlns="http://www.w3.org/2000/svg" xmlns:xlink="http://www.w3.org/1999/xlink" x="0px" y="0px"
	 viewBox="0 0 512 512" style="enable-background:new 0 0 512 512;" xml:space="preserve">
<style type="text/css">
	.st0{fill:#FFFFFF;}
</style>
<g transform="translate(0.000000,512.000000) scale(0.100000,-0.100000)">
	<path class="st0" d="M192,4459c-32-13-71-39-101-69c-160-160-103-452,104-529l56-21h2309h2309l56,21c260,97,260,501,0,598l-56,21
		l-2312-1C258,4479,245,4479,192,4459z"/>
	<path class="st0" d="M192,2859c-32-13-71-39-101-69c-160-160-103-452,104-529l56-21h2309h2309l56,21c260,97,260,501,0,598l-56,21
		l-2312-1C258,2879,245,2879,192,2859z"/>
	<path class="st0" d="M192,1259c-32-13-71-39-101-69C-69,1030-12,738,195,661l56-21h2309h2309l56,21c260,97,260,501,0,598l-56,21
		l-2312-1C258,1279,245,1279,192,1259z"/>
</g>
</svg>
