<svg id="Window_Buttons" data-name="Window Buttons" xmlns="http://www.w3.org/2000/svg" viewBox="0 0 1920 1916.69473"><defs><style>.cls-1{fill:#fff;}</style></defs><g id="Close"><path class="cls-1" d="M0,1718.67363c11.18912-58.7917,48.75852-99.75857,89.14989-140.27349q298.59292-299.50591,595.66155-600.56171c5.22176-5.26382,12.4425-8.50628,19.472-13.18468-9.10111-9.61172-13.66082-14.61987-18.42042-19.42619Q374.3484,630.653,62.81909,316.0933C-4.44133,248.14908-8.959,142.03839,52.0256,68.74234,112.74349-4.23315,218.095-18.2552,295.376,36.71131c9.633,6.85151,18.39505,15.14381,26.78376,23.55814Q630.727,369.77928,939.06633,679.52057c6.18886,6.21562,11.84255,12.97448,19.19829,21.081,6.659-6.387,12.00988-11.29448,17.11586-16.44939Q1282.29067,374.302,1589.2298,64.48092c100.85743-101.60847,266.37395-62.21962,305.64344,73.28286,19.74914,68.14567,5.53449,130.04428-45.01583,181.15505q-307.345,310.75322-615.09534,621.0976c-5.2843,5.33333-11.12471,10.105-18.68738,16.92585,7.79329,7.96362,14.11039,14.51973,20.53381,20.96791q311.76741,312.97223,623.65671,625.82067c39.28174,39.34662,60.699,85.66942,59.70144,141.846a176.488,176.488,0,0,1-172.74122,173.93093c-64.11981,1.49048-117.14042-19.86676-162.931-66.46446q-303.70825-309.06205-609.38288-616.15453c-5.26473-5.32067-9.33963-11.84142-18.85265-24.09008-6.73553,10.74165-9.762,18.22882-14.98021,23.5064q-309.95013,313.477-620.27458,626.57607c-63.43608,64.046-171.68166,75.742-247.07223,26.90094C35.083,1864.744,15.02146,1827.41367,4.05344,1783.87307,3.01021,1779.73179,1.36552,1775.745,0,1771.68647Q0,1745.18011,0,1718.67363Z" transform="translate(0 -3.20172)"/></g></svg>