<svg xmlns="http://www.w3.org/2000/svg" viewBox="0 0 200 131.64298"><defs><style>.cls-1{fill:#fff;}</style></defs><g id="Capa_1" data-name="Capa 1"><path class="cls-1" d="M96.07035,34.27249c-1.45023.2424-1.01908.0303-33.00264,17.119L38.68809,64.38983v71.26355L65.45864,149.894c14.69832,7.84747,27.47607,14.63448,28.37757,15.089,3.09644,1.57555,7.44715.909,9.44612-1.42406l1.05828-1.24227V37.75689l-.9015-1.09077a6.6691,6.6691,0,0,0-1.84219-1.60585A11.30591,11.30591,0,0,0,96.07035,34.27249Z" transform="translate(0 -34.19715)"/><path class="cls-1" d="M3.08723,65.369a8.94233,8.94233,0,0,0-2.18842,1.6917L0,68.08777V131.9495l.89881,1.0271a8.94237,8.94237,0,0,0,2.18842,1.69171c1.2896.6948,1.52408.6948,12.19261.6948h10.903V64.67416h-10.903C4.61131,64.67416,4.37683,64.67416,3.08723,65.369Z" transform="translate(0 -34.19715)"/></g><g id="Capa_2" data-name="Capa 2"><path class="cls-1" d="M127.19722,61.70779a6.98227,6.98227,0,0,0-3.87717,8.87442c.25848.64619,6.80659,7.53894,14.56094,15.29329l14.08706,14.13014L137.66559,114.3081c-12.407,12.45-14.30246,14.56094-14.56094,15.93949a7.07707,7.07707,0,0,0,1.55087,6.1604,6.38638,6.38638,0,0,0,6.11732,2.154c1.68011-.25848,2.84326-1.33548,16.24105-14.69018l14.4317-14.38862,13.7855,13.82858c16.15489,16.198,16.758,16.62877,21.19521,14.604,2.671-1.20623,3.66178-3.01558,3.48946-6.3758l-.17232-2.714-14.38862-14.38862-14.4317-14.4317,14.08706-14.08706c7.71127-7.79743,14.25939-14.56094,14.51786-15.0779a8.56132,8.56132,0,0,0-.38771-6.505A8.19314,8.19314,0,0,0,193.54,61.23391c-2.58478,0-4.6526,1.76627-18.30887,15.46561l-13.7855,13.82859-14.21631-14.2163c-7.79742-7.79743-14.77633-14.38862-15.42253-14.6471A6.7733,6.7733,0,0,0,127.19722,61.70779Z" transform="translate(0 -34.19715)"/></g></svg>