<svg id="Capa_1" data-name="Capa 1" xmlns="http://www.w3.org/2000/svg" viewBox="0 0 145.31922 200"><path d="M29.60958.70341C27.18771,2.18778,27.344-5.35126,27.344,100c0,105.66376-.19531,97.85128,2.30468,99.33565,1.05468.625,3.16405.66406,24.453.66406,25.62493,0,24.68743.07813,26.13274-2.34374.58594-1.01562.625-8.98435.625-97.656s-.03906-96.64035-.625-97.656C78.78912-.07784,79.72662.00029,54.02357.00029,32.73457.03935,30.58614.07841,29.60958.70341Z" transform="translate(-27.34039 0)"/><path d="M121.44525.66435a5.87074,5.87074,0,0,0-1.67968,1.71874c-.58594.97656-.625,9.25779-.625,97.61691,0,88.67162.03906,96.64035.625,97.656,1.44531,2.42187.50781,2.34374,26.13274,2.34374,21.289,0,23.39837-.03906,24.453-.66406,2.5-1.48437,2.30468,6.32811,2.30468-99.33565s.19531-97.85128-2.30468-99.33565c-1.05468-.625-3.16405-.66406-24.53118-.66406C124.9218.03935,122.34369.07841,121.44525.66435Z" transform="translate(-27.34039 0)"/></svg>