<?xml version="1.0" encoding="utf-8"?>
<!-- Generator: Adobe Illustrator 25.2.3, SVG Export Plug-In . SVG Version: 6.00 Build 0)  -->
<svg version="1.1" id="Capa_1" xmlns="http://www.w3.org/2000/svg" xmlns:xlink="http://www.w3.org/1999/xlink" x="0px" y="0px"
	 viewBox="0 0 200 200" style="enable-background:new 0 0 200 200;" xml:space="preserve">
<path d="M63.8,200H37.3c-8.2,0-15-6.7-15-15V15c0-8.2,6.7-15,15-15h23.5c8.2,0,15,6.7,15,15v173C75.8,194.6,70.5,200,63.8,200z"/>
<path d="M162.7,200h-23.5c-8.3,0-15-6.8-15-15V15c0-8.3,6.8-15,15-15h23.5c8.3,0,15,6.8,15,15v170C177.7,193.2,170.9,200,162.7,200z
	"/>
</svg>
