<svg id="Capa_1" data-name="Capa 1" xmlns="http://www.w3.org/2000/svg" viewBox="0 0 171.5223 200"><path d="M31.69441.623A25.00327,25.00327,0,0,0,14.95314,17.3196c-.625,2.18753-.71429,10.49119-.71429,82.59024,0,53.706.17857,80.84914.49108,82.18844,1.78573,7.81259,8.97331,15.08946,16.96448,17.18769,5.58042,1.51788,13.393.53572,18.1252-2.18752.98216-.58036,29.6432-18.61629,63.61681-40.0451,55.35777-34.95576,62.05428-39.33081,64.9561-42.188,5.134-5.17863,7.45544-11.02691,7.36615-18.70557a25.59973,25.59973,0,0,0-11.78585-21.56274C167.946,70.75772,49.10532,2.36407,46.60529,1.33728,43.2124-.09131,35.53374-.44846,31.69441.623Z" transform="translate(-14.23885)"/></svg>