<svg id="Capa_1" data-name="Capa 1" xmlns="http://www.w3.org/2000/svg" viewBox="0 0 200 131.64298"><defs><style>.cls-1{fill:#fff;}</style></defs><path class="cls-1" d="M96.07035,34.27249c-1.45023.2424-1.01908.0303-33.00264,17.119L38.68809,64.38983v71.26355L65.45864,149.894c14.69832,7.84747,27.47607,14.63448,28.37757,15.089,3.09644,1.57555,7.44715.909,9.44612-1.42406l1.05828-1.24227V37.75689l-.9015-1.09077a6.6691,6.6691,0,0,0-1.84219-1.60585A11.30591,11.30591,0,0,0,96.07035,34.27249Z" transform="translate(0 -34.19715)"/><path class="cls-1" d="M3.08723,65.369a8.94233,8.94233,0,0,0-2.18842,1.6917L0,68.08777V131.9495l.89881,1.0271a8.94237,8.94237,0,0,0,2.18842,1.69171c1.2896.6948,1.52408.6948,12.19261.6948h10.903V64.67416h-10.903C4.61131,64.67416,4.37683,64.67416,3.08723,65.369Z" transform="translate(0 -34.19715)"/><path class="cls-1" d="M163.77388,45.43943a5.041,5.041,0,0,0-3.55618,3.65529c-.39079,2.29588.11724,3.14173,3.75157,6.28346C174.247,64.25961,180.61688,73.35251,184.134,84.1069a46.31243,46.31243,0,0,1,2.30566,15.8899,46.31245,46.31245,0,0,1-2.30566,15.88991c-3.43894,10.57314-9.6134,19.42436-19.46128,28.03391a35.45573,35.45573,0,0,0-4.18144,4.10842c-1.17236,2.41672.1954,5.28657,3.12631,6.4043,4.49407,1.78233,7.26867.45313,15.51432-7.46161,8.83182-8.48872,15.9051-20.14937,18.8751-31.17564a63.61942,63.61942,0,0,0,0-31.59857c-3.59526-13.26173-11.372-24.89218-23.99444-35.82782C170.06558,44.95609,167.36914,44.17066,163.77388,45.43943Z" transform="translate(0 -34.19715)"/><path class="cls-1" d="M145.28957,59.72827c-2.2275.87606-3.20447,1.93337-3.43894,3.65528-.35171,2.41672.07815,3.29278,3.04815,5.83033,10.27774,8.85122,15.59247,19.27331,15.59247,30.63188,0,11.419-5.15841,21.90149-14.889,30.26937-3.32171,2.86985-3.86881,3.59487-3.86881,5.52824,0,3.80633,4.65039,6.25325,9.02722,4.773,4.10328-1.38962,12.46616-10.02938,16.68668-17.1889a42.89523,42.89523,0,0,0,6.40894-23.23069,43.55943,43.55943,0,0,0-7.30775-24.71092c-3.55618-5.52824-10.47314-12.8388-14.42011-15.16489A7.95435,7.95435,0,0,0,145.28957,59.72827Z" transform="translate(0 -34.19715)"/><path class="cls-1" d="M128.40749,73.564c-3.67341.48334-6.05722,3.44382-5.04117,6.28346a12.861,12.861,0,0,0,3.12631,3.74591c5.90091,5.43761,8.63643,12.02317,7.77669,18.69935-.66434,5.28656-3.20446,9.87832-7.77669,14.10758a12.861,12.861,0,0,0-3.12631,3.74591c-1.13329,3.23236,1.87578,6.31367,6.17446,6.34388a12.4519,12.4519,0,0,0,3.36078-.51355c2.42289-.90627,7.11236-5.498,9.96512-9.78771,6.56525-9.93874,6.76064-21.90149.46894-31.74961a33.107,33.107,0,0,0-5.86183-7.03868C133.87853,73.95669,131.88551,73.11084,128.40749,73.564Z" transform="translate(0 -34.19715)"/></svg>