<?xml version="1.0" encoding="utf-8"?>
<!-- Generator: Adobe Illustrator 25.2.3, SVG Export Plug-In . SVG Version: 6.00 Build 0)  -->
<svg version="1.1" id="Capa_1" xmlns="http://www.w3.org/2000/svg" xmlns:xlink="http://www.w3.org/1999/xlink" x="0px" y="0px"
	 viewBox="0 0 512 512" style="enable-background:new 0 0 512 512;" xml:space="preserve">
<style type="text/css">
	.st0{fill:#FFFFFF;}
</style>
<g transform="translate(0.000000,512.000000) scale(0.100000,-0.100000)">
	<path class="st0" d="M3542.8,5103.7c-428-72.1-795.8-341.4-987-724.9c-80.5-161.1-139.4-412.3-139.4-599.9v-87.8L1237,2366.4
		C533.8,1575.4,45.7,1016.4,26.5,980.3C-2.4,927.4-6,907-6,806c0-171.9,8.4-185.1,323.4-500.1C560.2,63,589.1,37.8,655.2,12.6
		c97.4-36.1,236.8-30.1,321,13.2c33.7,16.8,595.1,507.3,1382.5,1207l1326,1178.1l139.4,8.4c161.1,8.4,242.8,22.8,377.5,66.1
		c208,67.3,382.3,176.7,539.8,340.2c199.6,208,315,438.8,361.8,721.3c57.7,357-34.9,741.7-247.6,1024.2
		c-119,158.7-313.8,322.2-489.3,411.1C4135.4,5098.9,3804.8,5148.2,3542.8,5103.7z M4045.3,4827.2c354.6-93.8,651.6-372.7,761-715.3
		c44.5-137,54.1-218.8,46.9-388.3c-7.2-176.7-28.9-268.1-98.6-415.9c-52.9-110.6-127.4-215.2-215.2-301.7l-67.3-66.1l-765.8,767
		l-767,765.8l66.1,67.3c128.6,131,318.6,241.6,492.9,287.3C3654.6,4869.3,3890.2,4868.1,4045.3,4827.2z M3516.3,3510.8l720.1-720.1
		l-55.3-24c-89-40.9-260.9-75.7-372.7-76.9l-105.8-2.4l-503.7,503.7c-403.9,402.7-506.1,512.1-510.9,542.2
		c-9.6,49.3,10.8,228.4,34.9,323.4c18,66.1,60.1,175.5,68.5,175.5C2793.8,4232.1,3119.6,3907.5,3516.3,3510.8z M3005.4,2999.9
		c280.1-280.1,434-442.4,426.8-449.6c-7.2-6-587.9-522.9-1292.3-1148.1C1184.1,553.5,849.9,263.8,822.3,257.8
		c-24-3.6-51.7,0-72.1,10.8c-55.3,30.1-483.3,466.4-491.7,503.7c-4.8,18-3.6,46.9,2.4,63.7c8.4,26.4,2284.1,2602.7,2299.7,2602.7
		C2564.2,3438.7,2763.8,3241.5,3005.4,2999.9z"/>
	<path class="st0" d="M2614.7,2804c-26.4-19.2-105.8-95-176.7-167.1c-102.2-105.8-129.8-141.9-137-177.9
		c-18-95,62.5-175.5,157.5-157.5c37.3,7.2,73.3,36.1,188.7,149.1c171.9,168.3,196,202,186.3,269.3c-8.4,66.1-50.5,107-117.8,114.2
		C2671.2,2838.8,2655.6,2834,2614.7,2804z"/>
	<path class="st0" d="M806.7,4459.3c-14.4-13.2-31.3-38.5-38.5-55.3c-6-15.6-10.8-209.2-10.8-429.2v-399.1l-70.9,12
		c-167.1,27.6-334.2-68.5-408.7-233.2c-31.3-68.5-33.7-211.6-4.8-294.5c28.9-84.2,132.2-187.5,223.6-221.2
		c151.5-55.3,304.1-21.6,418.3,93.8c108.2,110.6,107,103.4,107,676.8c0,269.3,2.4,490.5,6,490.5c3.6,0,50.5-30.1,105.8-66.1
		c69.7-46.9,109.4-66.1,138.2-66.1c48.1,0,105.8,27.6,122.6,58.9c15.6,31.3,15.6,116.6-1.2,146.7c-7.2,13.2-110.6,89-230.8,168.3
		c-198.4,131-222.4,143.1-272.9,143.1C849.9,4484.6,825.9,4477.4,806.7,4459.3z M722.5,3283.6c48.1-48.1,48.1-107,0-159.9
		c-28.9-32.5-43.3-39.7-85.4-39.7c-42.1,0-56.5,7.2-85.4,39.7c-48.1,52.9-48.1,111.8,0,159.9c27.6,27.6,45.7,34.9,85.4,34.9
		C676.8,3318.5,694.9,3311.3,722.5,3283.6z"/>
	<path class="st0" d="M4157.1,1904.7c-18-9.6-38.5-27.6-45.7-40.9c-7.2-14.4-12-176.7-12-436.4v-412.3l-101,4.8
		c-129.8,7.2-200.8-15.6-283.7-90.2c-33.7-30.1-75.7-82.9-93.8-116.6c-28.9-54.1-32.5-74.5-32.5-175.5s3.6-121.4,32.5-175.5
		c40.9-78.1,137-165.9,210.4-189.9c80.5-27.6,224.8-25.2,292.1,6c114.2,51.7,186.3,133.4,221.2,251.3
		c15.6,54.1,19.2,138.2,19.2,537.4v472.4l98.6-66.1c81.7-54.1,109.4-66.1,150.3-66.1c96.2,0,159.9,93.8,123.8,181.5
		c-12,28.9-68.5,72.1-239.2,186.3C4259.2,1933.6,4230.4,1944.4,4157.1,1904.7z M4052.5,723c74.5-74.5,24-205.6-78.1-205.6
		c-30.1,0-54.1,10.8-81.7,34.9c-32.5,28.9-39.7,43.3-39.7,85.4c0,42.1,7.2,56.5,39.7,85.4C3945.5,771.1,4004.4,771.1,4052.5,723z"/>
</g>
</svg>
