<svg id="Capa_1" data-name="Capa 1" xmlns="http://www.w3.org/2000/svg" viewBox="0 0 478.81635 510.84187"><defs><style>.cls-1{fill:#fff;}</style></defs><path class="cls-1" d="M392.26837,341.44885c-.00275-9.30548-.10132-18.611-.15564-27.91644-1.30206-.65808-2.25464.1391-3.05884.90863q-9.25964,8.85965-18.11944,18.12158a7.61392,7.61392,0,0,0-2.08161,4.87891,68.02122,68.02122,0,0,0-.22265,8.457q-.01374,66.56141-.00733,133.1228c-.00055,9.304-.00714,9.31482-9.30981,9.31519q-130.636.00449-261.2721.00049c-1.49554-.00006-2.99133-.03858-4.48632-.04859-2.65955-.01776-3.92463-1.283-3.98694-3.95373-.08533-3.6565-.05078-7.31189-.05329-10.96759-.00677-9.7284.00348-9.7312,9.91858-9.73175q113.68323-.0066,227.36652-.02112c12.887-.00739,17.10107-4.26154,17.11255-17.006q.03369-37.39409-.00452-74.78809c-.002-2.48218.20874-4.996-.65747-7.41217-.716-1.67072-2.08136-1.7616-3.14746-.75952-4.686,4.40472-10.892,5.00134-16.59033,6.86621-2.10181.68786-4.00446,1.52795-4.45575,4.0036-.7384,18.10614-.14935,36.225-.307,54.33942-.08337,9.58282-.02081,9.5932-9.59875,9.5935q-130.153.00431-260.306.00037c-9.20459-.00025-9.2146-.00824-9.21485-9.42212q-.0042-151.08993-.001-302.17987c.00006-9.387.00464-9.38642,9.65478-9.39227,22.93878-.014,45.87805.09649,68.81616-.05457,9.34809-.06158,14.02478-4.87067,14.28132-14.19318.09143-3.32287.03015-6.64831.03094-9.97259.00476-20.61072-.02557-41.2215.01788-61.83215.01337-6.35688.3736-6.64173,6.83991-6.72437.49866-.00635.99737-.00323,1.496-.00323q84.774-.00083,169.54791.00256c8.387.00079,8.38764.01745,8.4209,8.16937.00537,1.32971.00128,2.65942.00128,3.98914q.0001,117.182.01117,234.364c.00061,3.15039-.24414,6.3197.44007,9.45081.83142,2.75463,2.553,2.29821,4.06549.88189,6.6018-6.18225,13.12732-12.4494,19.10467-19.25183a6.19771,6.19771,0,0,0,1.30707-3.65741,64.89485,64.89485,0,0,0,.24225-8.45911q.01163-82.79141.0069-165.58294c.00006-1.82849.05-3.658.04016-5.48517-.01667-3.11279,1.46863-4.51355,4.56537-4.52216,5.1538-.01428,10.30774.01886,15.46081-.01934,3.06873-.02277,4.65412,1.24322,4.61591,4.42047-.02191,1.82666.03369,3.65661.03375,5.48517q.00257,68.82669.00958,137.65332a42.52506,42.52506,0,0,0,.38849,8.46466c1.55792,4.31317,3.636,1.55609,5.10474.16735,5.66375-5.355,11.11737-10.93017,16.575-16.49707.92352-.942,1.85065-1.94158,1.68579-3.4439-.03918-1.82727-.11237-3.65455-.11261-5.48182q-.00944-70.33017-.00976-140.66027c-.0022-9.82319-3.7851-13.65174-13.4632-13.66846-10.974-.01892-21.94946-.101-32.92108.0611-2.86572.04235-3.59485-.84424-3.55731-3.62476.15045-11.13776.09069-22.27881.05279-33.41846-.03-8.79773-4.039-12.89068-12.731-12.89319q-103.75433-.02947-207.50866-.06128A14.72479,14.72479,0,0,0,111.018,5.57959Q65.92078,50.776,20.72095,95.86963a14.78709,14.78709,0,0,0-4.61176,11.09991q.07334,171.08679.05231,342.17365c.00152,8.59759,4.28534,12.83337,12.85394,12.86639,10.80756.04163,21.61872.16,32.42133-.07525,3.54785-.07721,4.83325.56475,4.70685,4.4978-.331,10.29779.15246,20.62244-.20588,30.91839-.23291,6.69239,2.00464,11.52082,7.98847,14.55115h310.2807c6.20349-2.819,8.19824-7.62781,8.17358-14.37445C392.19019,445.50165,392.28363,393.4751,392.26837,341.44885ZM109.0448,39.88458q0,25.645.00891,51.23438c.00128,1.55609.13428,2.89038-2.18658,2.88153-17.34119-.06641-34.68268-.03613-51.88526-.03613C73.02081,75.9198,90.88275,58.05231,109.0448,39.88458Z" transform="translate(-16.10919 -1.0598)"/><path class="cls-1" d="M490.87787,197.5166q-16.72513-17.12687-33.85388-33.85809c-5.63691-5.5174-11.3133-5.3418-17.12732.17352-3.97907,3.77454-7.76062,7.75641-11.66315,11.61249q-17.90734,17.69412-35.84039,35.36035a250.82534,250.82534,0,0,1-21.93256,21.92145c-1.49591-.08093-2.418.929-3.34155,1.843q-11.23041,11.115-22.36133,22.32989a9.58585,9.58585,0,0,0-2.25146,3.77808,245.6508,245.6508,0,0,1-21.9704,21.96063c-1.87891-.02509-2.99811,1.29645-4.15686,2.44763-8.832,8.77387-17.66706,17.54511-26.39838,26.41925A23.63686,23.63686,0,0,0,283.69446,322.1c-3.874,14.769-8.103,29.44561-11.80487,44.25659-2.902,11.61066,4.62713,19.0816,16.219,16.25824,9.67328-2.3559,19.26721-5.03742,28.86481-7.6919a5.42625,5.42625,0,0,0,3.39526-1.897c7.31427-3.13971,16.16266-2.78888,21.85993-9.60736,4.54156-2.31976,7.48242-6.44592,10.90912-9.9588,5.76208-5.907,12.36383-11.03681,17.02984-17.98236,7.04145-7.58856,14.332-14.92816,21.945-21.94538,1.46277-1.58679,2.87225-3.22668,4.39648-4.752q46.7146-46.74491,93.44538-93.47369C496.19281,209.06171,496.62616,203.403,490.87787,197.5166ZM325.0293,348.439c-7.70472,2.53321-15.60254,4.48517-23.44232,6.598-2.47352.66662-2.38569-.954-1.95691-2.571,1.9541-7.36975,3.85791-14.75482,5.96423-22.08136.91632-3.18756,3.98749-4.7854,6.05273-7.1278.92224-1.046,1.71039-.48749,2.481.285q8.4452,8.46606,16.90118,16.92139a17.11066,17.11066,0,0,1,1.08478,1.366C330.00061,344.31512,328.11224,347.42535,325.0293,348.439ZM426.81335,247.42212q-38.38,38.40747-76.74639,76.82849c-1.68848,1.69482-2.66645,1.70483-4.32746-.02991-5.05145-5.27581-10.19726-10.47015-15.49988-15.49182-1.93151-1.8291-1.3302-2.81653.19922-4.34222q38.44062-38.34714,76.81848-76.75714c1.00147-1.00074,1.8689-2.457,3.59375-.69745,5.579,5.691,11.25275,11.28906,16.879,16.934a12.23328,12.23328,0,0,1,.98041,1.31122C428.082,245.92645,427.50421,246.73077,426.81335,247.42212ZM466.14807,208.179q-9.81629,9.54738-19.36963,19.36334c-1.58105,1.61957-2.5556,1.96209-4.30975.1214-5.03729-5.28571-10.299-10.35712-15.44806-15.53711-.97968-.9856-2.51392-1.81458-.74377-3.56024,6.9732-6.87684,13.86712-13.834,20.80578-20.74585a13.7853,13.7853,0,0,1,1.62982-1.19355c.72473.65668,1.356,1.18219,1.93476,1.7602,5.16821,5.16088,10.26062,10.40033,15.52636,15.45947C467.92,205.52448,467.84869,206.525,466.14807,208.179Z" transform="translate(-16.10919 -1.0598)"/><path class="cls-1" d="M147.7573,259.32165c22.93951-.00344,45.87924-.06342,68.81841.02554,9.43.03659,14.79152,8.75127,10.25075,16.37249-2.60286,4.36857-6.744,5.559-11.493,5.55324q-23.68752-.02877-47.37513-.00691-43.38565.00014-86.77132-.006a36.779,36.779,0,0,1-4.977-.16164c-6.192-.851-10.49289-5.81357-10.12288-11.54044.37979-5.87828,4.96566-10.18139,11.3557-10.20234C100.88074,259.27872,124.3191,259.32512,147.7573,259.32165Z" transform="translate(-16.10919 -1.0598)"/><path class="cls-1" d="M147.25188,304.21553c23.10577-.00353,46.21178-.06293,69.31721.02527,9.431.036,14.79671,8.74494,10.261,16.36713-2.6002,4.36958-6.7402,5.56457-11.49,5.55866q-23.18884-.02872-46.37776-.00679-43.88435.00009-87.76868-.006a36.87882,36.87882,0,0,1-4.97711-.16081c-6.193-.84867-10.49584-5.80743-10.12986-11.53469.37559-5.87758,4.96281-10.18739,11.34949-10.20864C100.70785,304.17221,123.97994,304.21906,147.25188,304.21553Z" transform="translate(-16.10919 -1.0598)"/><path class="cls-1" d="M110.34087,349.105c10.6399.00009,21.28005-.04488,31.91961.01583,7.14184.04077,11.883,4.19086,12.1473,10.44459.26548,6.28223-4.69925,11.37522-11.85235,11.425q-32.16751.22391-64.33746.01489c-7.25574-.04071-12.21189-4.83433-12.15527-11.14128.05689-6.33688,5.01229-10.70864,12.35859-10.74545C89.06091,349.0653,99.701,349.10494,110.34087,349.105Z" transform="translate(-16.10919 -1.0598)"/><path class="cls-1" d="M292.47076,62.97308c-.00763-7.76843-4.25695-11.94568-12.14392-11.95807-32.40765-.051-64.81549-.00372-97.22314-.04663a11.88511,11.88511,0,0,0-8.62409,3.213c-3.1781,3.023-3.50225,6.98529-3.50116,11.04553.0069,25.59259-.05175,51.18542.06788,76.77746.01635,3.49244-.45044,4.75208-4.29779,3.41681-5.74476-1.99377-11.69306-1.91046-17.69019-.67041-18.27844,3.77948-31.29572,22.8913-27.92932,41.20411,3.59637,19.564,21.671,32.89526,40.54614,29.90557,19.1156-3.02777,31.122-17.1994,31.23352-37.09472.09686-17.28272.03241-34.56647.01-51.8498-.00293-2.26507-.2038-4.16845,3.19775-4.152q35.64771.17275,71.29663.02295c2.34614-.00623,3.21467.72613,3.17133,3.12359-.11993,6.63391-.04156,13.27136-.04156,20.58966-7.13343-2.05462-13.66987-3.30212-20.627-1.96515-19.13019,3.6764-31.4729,20.52631-29.34405,40.56409,1.858,17.4892,18.90466,31.97894,36.799,31.27948,19.27563-.75342,34.93377-16.191,35.0343-35.24823C292.61279,141.74554,292.50946,102.35895,292.47076,62.97308ZM156.51868,194.40228a14.28872,14.28872,0,1,1,14.40924-14.0943A14.31191,14.31191,0,0,1,156.51868,194.40228Zm99.873.00434a14.28994,14.28994,0,1,1,14.11676-13.93592A14.23015,14.23015,0,0,1,256.39172,194.40662Zm14.23334-117.49c-.26855,6.79083-.20465,13.60308-.02051,20.39953.07825,2.88672-.94915,3.62018-3.70843,3.60938q-35.08639-.13743-70.17352-.00873c-2.62751.00836-3.93281-.49219-3.85-3.52014.19043-6.9621.17944-13.936.00311-20.89881-.07385-2.91711,1.02649-3.63733,3.76667-3.60907,11.77734.12152,23.5567.05188,35.33526.05176,11.44684-.00018,22.89484.08942,34.33966-.05975C269.38422,72.84082,270.76215,73.45013,270.62506,76.91663Z" transform="translate(-16.10919 -1.0598)"/></svg>