<?xml version="1.0" encoding="utf-8"?>
<!-- Generator: Adobe Illustrator 25.2.3, SVG Export Plug-In . SVG Version: 6.00 Build 0)  -->
<svg version="1.1" id="Capa_1" xmlns="http://www.w3.org/2000/svg" xmlns:xlink="http://www.w3.org/1999/xlink" x="0px" y="0px"
	 viewBox="0 0 512 512" style="enable-background:new 0 0 512 512;" xml:space="preserve">
<style type="text/css">
	.st0{fill:#FFFFFF;}
</style>
<g transform="translate(0.000000,512.000000) scale(0.100000,-0.100000)">
	<path class="st0" d="M2340,5114c-735-90-1347-631-1529-1352c-51-202-67-512-36-716c32-214,108-437,210-617c54-94,90-145,276-384
		c75-97,154-241,188-345c41-127,51-207,57-465c4-205,9-262,25-316c32-113,134-228,242-272l37-16V497c0-107,4-145,19-190
		c49-140,162-250,303-292c76-22,780-22,856,0c141,42,254,152,303,292c15,45,19,83,19,190v134l38,16c105,44,207,157,242,270
		c17,54,20,93,20,232c0,472,61,660,320,986c177,223,262,375,340,601c63,183,90,359,90,582c0,385-108,726-330,1044
		c-83,120-306,343-430,431c-119,84-342,196-481,241c-191,62-298,79-534,81C2470,5117,2359,5116,2340,5114z M2802,4790
		c155-27,284-69,421-139c155-78,259-154,387-281c224-224,364-492,421-810c18-98,20-141,16-290c-3-105-12-205-22-250
		c-39-179-128-397-217-528c-17-26-72-99-123-162c-155-194-227-314-289-481c-36-98-76-258-76-304c0-25-1-25-80-25h-80v695v695
		l-239,477c-268,535-260,523-361,523s-93,12-361-523l-239-477v-695v-695h-75c-52,0-77,4-79,13c-2,6-11,50-20,97
		c-23,125-59,230-126,365c-56,114-85,156-289,418c-155,199-258,446-292,704c-18,138-6,403,24,533c91,387,323,716,661,935
		c98,64,242,131,355,165C2318,4811,2591,4827,2802,4790z M2683,3165c64-129,117-237,117-239s-28-12-62-22c-46-13-95-18-178-18
		s-132,5-177,18c-35,10-63,20-63,22c0,9,235,474,240,474C2563,3400,2618,3294,2683,3165z M2400,2585c127-24,249-18,428,20l32,8v-547
		v-546h-300h-300v546v547l33-8C2310,2602,2359,2592,2400,2585z M3308,1116c-6-105-24-148-76-178c-28-17-79-18-672-18s-644,1-672,18
		c-52,30-70,73-76,178l-5,94h753h753L3308,1116z M3008,511c-5-110-23-152-76-184c-27-15-64-17-372-17s-345,2-372,18
		c-53,31-71,73-76,183l-5,99h453h453L3008,511z"/>
	<path class="st0" d="M124,4306c-69-30-105-137-69-207c23-45,208-234,264-270c104-67,227-10,239,111c6,65-13,97-132,219
		C273,4316,214,4345,124,4306z"/>
	<path class="st0" d="M4839,4291c-56-36-241-225-264-270c-36-71-3-171,69-205c88-42,148-13,302,145c119,122,138,154,132,219
		C5066,4302,4944,4359,4839,4291z"/>
	<path class="st0" d="M114,3311c-75-19-114-71-114-154c0-53,3-61,39-100l40-42h221h221l40,42c36,39,39,47,39,99c0,66-22,109-72,139
		c-29,18-53,20-208,22C224,3318,131,3315,114,3311z"/>
	<path class="st0" d="M4634,3311c-75-19-114-71-114-154c0-53,3-61,39-100l40-42h221h221l40,42c36,39,39,47,39,99c0,66-22,109-72,139
		c-29,18-53,20-208,22C4744,3318,4651,3315,4634,3311z"/>
	<path class="st0" d="M319,2491c-56-36-241-225-264-270c-36-71-3-171,69-205c88-42,148-13,302,145c119,122,138,154,132,219
		C546,2502,424,2559,319,2491z"/>
	<path class="st0" d="M4644,2506c-69-30-105-137-69-207c23-45,208-234,264-270c104-67,227-10,239,111c6,65-13,97-132,219
		C4793,2516,4734,2545,4644,2506z"/>
</g>
</svg>
