<svg id="Capa_1" data-name="Capa 1" xmlns="http://www.w3.org/2000/svg" viewBox="0 0 511.74028 511.90304"><defs><style>.cls-1{fill:#fff;}</style></defs><path class="cls-1" d="M452,1.4a48.40927,48.40927,0,0,0-33.9,37c-.7,3.8-1.1,24.3-1.1,55.7v49.7l-25.9,19.6c-32.3,24.4-41.6,32.1-56,46.1-32.3,31.4-46.1,59.7-46.1,94.6,0,23.5,5.7,42.9,18.2,61.9,5.3,8.1,18.1,21.6,26.8,28.1,8.9,6.8,26.5,15.3,38.5,18.6,9.1,2.5,11.6,2.7,27.2,2.8H417v26.8c0,29.3-.1,30.1-6,35.1a15.85542,15.85542,0,0,1-21,0c-4-3.5-5-5.5-6-12.6-.5-3.3-1.6-7.1-2.5-8.4-4.2-6.5-15-8.5-21.6-4.1-5.4,3.6-7.1,7.9-6.5,16.2,2,25.7,21.2,43.5,47,43.5,18.1,0,32.5-7.9,41-22.3,5.9-10,6.6-15.5,6.6-51.6V406.2l7.3-4c35.9-19.7,58.3-59.7,56.4-100.7-.7-14.8-2.5-22.3-8.5-34.5-3.9-8.1-6-10.9-13.6-18.5-7.3-7.3-10.9-10-18.1-13.7a126.45567,126.45567,0,0,0-16.2-6.8l-7.3-2.2V159l4.3-3.7c26.1-23,43.1-44.5,51.6-65.4,6.3-15.6,7.6-22.3,7.6-39.9V34.5L507.8,27C499.3,9.6,483.7-.1,464.6.1A59.4816,59.4816,0,0,0,452,1.4Zm21.8,32.3c5.4,4,7.2,7.9,7.2,16,0,19.2-8,37.6-25.4,58.3l-7.1,8.5-.3-8.5c-.2-4.7-.2-21.3,0-37,.3-27.9.3-28.6,2.6-32.3,3.4-5.3,8.4-7.8,15-7.4C469.1,31.5,472.1,32.4,473.8,33.7ZM417,204.4v21.4l-7.2,2.2c-14,4.2-25.5,11.6-35.9,22.8-8.3,9-12.4,16-16.5,28.1-4.7,13.5-5.6,25.9-2.5,32.4,2.4,4.9,8.2,8.7,13.4,8.7,6.8,0,14.2-6.1,15.1-12.3,2.1-15.1,3-18.9,5.8-24.7,3.8-7.9,13.2-17.7,20.5-21.4A34.06551,34.06551,0,0,1,416,259c.7,0,1,20.1,1,62.4v62.3l-3.7.7a131.22667,131.22667,0,0,1-13.4.6c-32.4,0-63.7-22-75.2-53-3.7-9.9-5.1-19.4-4.5-31.7,1.4-27.8,16.7-52.5,50.6-81.1,8.6-7.3,44.9-35.9,46-36.1C416.9,183,417,192.6,417,204.4Zm43.9,60.4A51.34082,51.34082,0,0,1,476,282c10,19.5,4.6,50.9-12.3,72.6-4.8,6.2-13.5,14.4-15.1,14.4-.3,0-.6-25-.6-55.4V258.1l3.8,1.6A64.40732,64.40732,0,0,1,460.9,264.8Z" transform="translate(-0.0718 -0.09696)"/><path class="cls-1" d="M35.3,81.5A47.80643,47.80643,0,0,0,7,102.2C-.5,113.8-.1,104.1.2,259.1L.5,397.6l3.7,7.5c6.1,12.4,16,21,28.7,24.9,6.1,1.9,9.9,2,132,2,123.6,0,125.7,0,128.9-2,9.5-5.8,9.6-20.9.1-26.5-3.3-2-5.4-2-93.1-2.3L111,401V352l68.9-.2c67.9-.3,69-.3,71.7-2.4,5.1-3.8,6.5-6.6,6.5-12.9s-1.4-9.1-6.5-12.9c-2.7-2.1-3.8-2.1-71.7-2.4L111,321V272.1l70.9-.3c69.9-.3,71-.3,73.7-2.4,4.5-3.3,6.7-7,7.1-12.1a14.54516,14.54516,0,0,0-6.6-14l-3.4-2.3H111V191l97.8-.2c95.9-.3,97.7-.3,100.4-2.3,3.8-2.8,5.8-7.4,5.8-13.2s-2.6-10.5-7.2-13c-3.1-1.7-9.1-1.8-100-2.1L111,160V111H241.3c126.8,0,130.3-.1,134.5-2,7.3-3.3,10.1-12.3,6.3-20.7a11.73713,11.73713,0,0,0-6-6.2c-4-2.1-4.4-2.1-169.8-2C66.9,80.1,39.7,80.4,35.3,81.5Zm44.7,54V160H30V144.7c.1-22.6,1.4-26.7,9.6-31.4,3.6-2.1,5.1-2.3,22.2-2.3H80ZM80,216v25H30V191H80Zm0,80.5V321H30V272H80Zm0,80V401H61.1c-17.9,0-19-.1-22.1-2.3-7.7-5.2-8.9-9.3-9-31.5V352H80Z" transform="translate(-0.0718 -0.09696)"/></svg>