<?xml version="1.0" encoding="utf-8"?>
<!-- Generator: Adobe Illustrator 25.2.3, SVG Export Plug-In . SVG Version: 6.00 Build 0)  -->
<svg version="1.1" id="Capa_1" xmlns="http://www.w3.org/2000/svg" xmlns:xlink="http://www.w3.org/1999/xlink" x="0px" y="0px"
	 viewBox="0 0 512 512" style="enable-background:new 0 0 512 512;" xml:space="preserve">
<style type="text/css">
	.st0{fill:#FFFFFF;}
</style>
<g transform="translate(0.000000,512.000000) scale(0.100000,-0.100000)">
	<path class="st0" d="M401,5104c-174-47-317-184-378-363l-22-66L0,2564C0,493,0,451,20,389C75,210,228,62,405,15C457,2,710,0,2560,0
		c2311,0,2146-5,2274,62c77,41,181,145,223,224c68,127,63-38,63,2274c0,2311,5,2146-63,2274c-40,78-145,183-223,223
		c-128,68,38,63-2279,62C754,5119,447,5117,401,5104z M4673,4786c62-30,106-79,129-144c19-55,19-4109,0-4164c-23-65-67-114-129-144
		l-58-29H2565c-1658,0-2057,2-2087,13c-65,23-114,67-144,129l-29,58l-3,2019c-1,1349,1,2038,8,2075c20,109,97,190,200,210
		c25,5,939,8,2075,7l2030-1L4673,4786z"/>
	<path class="st0" d="M1121,4462c-19-9-44-30-55-45c-20-27-21-43-24-383l-3-354H902c-123,0-142-2-182-22c-80-42-80-41-80-458
		c0-347,1-367,20-398c39-63,67-72,233-72h147v-987c0-921,1-990,18-1022c25-50,63-74,124-78c67-5,114,19,145,73l23,39v988v987h149
		c137,0,151,2,182,23c68,45,69,51,69,451c0,350-1,359-22,397c-36,65-79,79-241,79h-137v343c0,335-1,343-23,381
		C1287,4474,1195,4500,1121,4462z M1440,3205v-165h-245H950v165v165h245h245V3205z"/>
	<path class="st0" d="M2482,4460c-18-11-41-34-52-52c-20-32-20-53-20-1185V2070h-146c-130,0-150-2-184-21c-76-43-75-38-75-456
		c0-360,1-372,21-399c48-64,62-69,230-72l154-3V932c0-169,2-190,20-220c54-89,175-97,250-17c25,26,25,29,28,225l3,199l154,3
		c167,3,182,8,229,72c20,27,21,39,21,401c0,363-1,374-21,402c-11,15-36,38-54,51c-31,20-44,22-181,22h-149l-2,1164l-3,1164l-25,27
		C2626,4483,2544,4497,2482,4460z M2810,1595v-165h-250h-250v165v165h250h250V1595z"/>
	<path class="st0" d="M3850,4462c-19-10-45-37-57-58l-23-39v-582v-581l-149-4c-166-3-181-9-229-78l-23-34l3-372c3-361,4-373,24-401
		c43-58,75-68,232-71l142-4v-741V755l23-39c31-54,78-78,145-73c61,4,99,28,124,78c17,31,18,89,18,775v742l149,3c166,4,182,10,229,79
		c22,33,22,36,22,398c0,351-1,366-21,402c-37,65-64,75-231,78l-148,4v581c0,641,2,624-62,670C3979,4482,3895,4487,3850,4462z
		 M4170,2720v-170h-245h-245v170v170h245h245V2720z"/>
</g>
</svg>
