<?xml version="1.0" encoding="utf-8"?>
<!-- Generator: Adobe Illustrator 25.2.3, SVG Export Plug-In . SVG Version: 6.00 Build 0)  -->
<svg version="1.1" id="Capa_1" xmlns="http://www.w3.org/2000/svg" xmlns:xlink="http://www.w3.org/1999/xlink" x="0px" y="0px"
	 viewBox="0 0 512 512" style="enable-background:new 0 0 512 512;" xml:space="preserve">
<style type="text/css">
	.st0{fill:#FFFFFF;}
</style>
<g transform="translate(0.000000,512.000000) scale(0.100000,-0.100000)">
	<path class="st0" d="M4520,5106c-171-48-307-197-339-370c-7-38-11-243-11-557v-497l-259-196c-323-244-416-321-560-461
		c-323-314-461-597-461-946c0-235,57-429,182-619c53-81,181-216,268-281c89-68,265-153,385-186c91-25,116-27,272-28h173V697
		c0-293-1-301-60-351c-64-53-146-53-210,0c-40,35-50,55-60,126c-5,33-16,71-25,84c-42,65-150,85-216,41c-54-36-71-79-65-162
		c20-257,212-435,470-435c181,0,325,79,410,223c59,100,66,155,66,516v319l73,40c359,197,583,597,564,1007c-7,148-25,223-85,345
		c-39,81-60,109-136,185c-73,73-109,100-181,137c-49,25-123,56-162,68l-73,22v334v334l43,37c261,230,431,445,516,654
		c63,156,76,223,76,399v155l-37,75c-85,174-241,271-432,269C4602,5119,4545,5113,4520,5106z M4738,4783c54-40,72-79,72-160
		c0-192-80-376-254-583l-71-85l-3,85c-2,47-2,213,0,370c3,279,3,286,26,323c34,53,84,78,150,74C4691,4805,4721,4796,4738,4783z
		 M4170,3076v-214l-72-22c-140-42-255-116-359-228c-83-90-124-160-165-281c-47-135-56-259-25-324c24-49,82-87,134-87
		c68,0,142,61,151,123c21,151,30,189,58,247c38,79,132,177,205,214c29,14,57,26,63,26c7,0,10-201,10-624v-623l-37-7
		c-21-3-81-6-134-6c-324,0-637,220-752,530c-37,99-51,194-45,317c14,278,167,525,506,811c86,73,449,359,460,361
		C4169,3290,4170,3194,4170,3076z M4609,2472c55-37,119-109,151-172c100-195,46-509-123-726c-48-62-135-144-151-144
		c-3,0-6,250-6,554v555l38-16C4538,2515,4579,2492,4609,2472z"/>
	<path class="st0" d="M353,4305c-119-32-216-103-283-207c-75-116-71-19-68-1569l3-1385l37-75c61-124,160-210,287-249
		c61-19,99-20,1320-20c1236,0,1257,0,1289,20c95,58,96,209,1,265c-33,20-54,20-931,23l-898,2v245v245l689,2c679,3,690,3,717,24
		c51,38,65,66,65,129s-14,91-65,129c-27,21-38,21-717,24l-689,2v245v244l709,3c699,3,710,3,737,24c45,33,67,70,71,121
		c5,59-18,108-66,140l-34,23h-708h-709v250v250l978,2c959,3,977,3,1004,23c38,28,58,74,58,132s-26,105-72,130c-31,17-91,18-1000,21
		l-968,2v245v245h1303c1268,0,1303,1,1345,20c73,33,101,123,63,207c-14,30-31,48-60,62c-40,21-44,21-1698,20
		C669,4319,397,4316,353,4305z M800,3765v-245H550H300v153c1,226,14,267,96,314c36,21,51,23,222,23h182V3765z M800,2960v-250H550
		H300v250v250h250h250V2960z M800,2155v-245H550H300v245v245h250h250V2155z M800,1355v-245H611c-179,0-190,1-221,23
		c-77,52-89,93-90,315v152h250h250V1355z"/>
</g>
</svg>
