<?xml version="1.0" encoding="utf-8"?>
<!-- Generator: Adobe Illustrator 25.2.3, SVG Export Plug-In . SVG Version: 6.00 Build 0)  -->
<svg version="1.1" id="Capa_1" xmlns="http://www.w3.org/2000/svg" xmlns:xlink="http://www.w3.org/1999/xlink" x="0px" y="0px"
	 viewBox="0 0 512 512" style="enable-background:new 0 0 512 512;" xml:space="preserve">
<style type="text/css">
	.st0{fill:#FFFFFF;}
</style>
<g transform="translate(0.000000,512.000000) scale(0.100000,-0.100000)">
	<path class="st0" d="M1669,5092c-60-31-111-102-123-169c-11-71-7-4688,5-4743C1575,69,1663,1,1784,0c118,0,199,58,231,164
		c22,72,23,4718,1,4788C1973,5098,1807,5164,1669,5092z"/>
	<path class="st0" d="M2505,4251c-46-12-87-36-122-73c-68-70-63,50-63-1621V1044l26-53c33-65,87-106,160-121c113-24,219,24,268,121
		l26,53v1513c0,1671,5,1551-63,1621C2678,4240,2580,4271,2505,4251z"/>
	<path class="st0" d="M4055,4251c-77-20-134-67-166-136c-18-38-19-104-19-1555V1045l24-52c42-89,153-145,253-127c53,9,127,50,152,85
		c53,72,51-4,51,1607c0,1105-3,1505-12,1533c-14,50-69,114-118,139C4177,4252,4098,4262,4055,4251z"/>
	<path class="st0" d="M905,3797c-59-28-96-69-119-129c-15-39-16-146-14-1123l3-1080l22-40c27-51,68-90,115-109c51-22,153-20,203,3
		c51,23,111,89,125,138c8,27,10,353,8,1125l-3,1086l-30,43c-17,24-50,57-73,74c-37,25-54,30-115,33C968,3820,946,3817,905,3797z"/>
	<path class="st0" d="M3240,3370c-56-26-95-63-123-115c-22-40-22-43-22-695v-655l28-51c32-58,68-88,129-110c119-42,248,11,302,126
		c21,44,21,57,24,669c3,690,3,695-60,767C3451,3382,3327,3411,3240,3370z"/>
	<path class="st0" d="M183,2951c-63-16-122-60-153-114l-30-52v-214c0-131,4-228,11-252c28-91,118-153,224-152c99,0,173,43,218,128
		c21,38,22,54,22,265c0,213-1,227-22,266C403,2920,282,2976,183,2951z"/>
	<path class="st0" d="M4845,2954c-90-22-141-59-178-128c-21-39-22-54-22-266c0-211,1-227,22-265c45-85,119-128,218-128
		c106-1,196,61,224,152c7,24,11,121,11,253v214l-32,54C5039,2919,4925,2973,4845,2954z"/>
</g>
</svg>
